<svg xmlns="http://www.w3.org/2000/svg" version="1.1" width="3300" height="2000"><g id="Notes"><style>
    text {
      font-family: monospace;
      text-anchor: middle;
    }
    text.emphasis {
      font-weight:bold;
    }
    text.lanchor {
      text-anchor: start;
    }
  </style><rect height="2200" id="artboard" fill="white" width="3300" x="0" y="0"/><line id="" style="fill:none;stroke:black;stroke-width:0.5;" x1="263" x2="3036" y1="292" y2="292"/><text class="lanchor emphasis" transform="matrix(1 0 0 1 263 322)">Weight/Scale Variations</text><text transform="matrix(1 0 0 1 559.711 322)">Ultralight</text><text transform="matrix(1 0 0 1 856.422 322)">Thin</text><text transform="matrix(1 0 0 1 1153.13 322)">Light</text><text transform="matrix(1 0 0 1 1449.84 322)">Regular</text><text transform="matrix(1 0 0 1 1746.56 322)">Medium</text><text transform="matrix(1 0 0 1 2043.27 322)">Semibold</text><text transform="matrix(1 0 0 1 2339.98 322)">Bold</text><text transform="matrix(1 0 0 1 2636.69 322)">Heavy</text><text transform="matrix(1 0 0 1 2933.4 322)">Black</text><text id="template-version" style="text-anchor: end;" transform="matrix(1 0 0 1 3036 1933)">Template v.1.0</text><text class="lanchor" transform="matrix(1 0 0 1 263 726)">Small</text><text class="lanchor" transform="matrix(1 0 0 1 263 1156)">Medium</text><text class="lanchor" transform="matrix(1 0 0 1 263 1586)">Large</text></g><g id="Guides"><g id="H-reference" style="fill:#27AAE1;stroke:none;" transform="matrix(1 0 0 1 339 696)"><path d="M 54.9316 0 L 57.666 0 L 30.5664 -70.459 L 28.0762 -70.459 L 0.976562 0 L 3.66211 0 L 12.9395 -24.4629 L 45.7031 -24.4629 Z M 29.1992 -67.0898 L 29.4434 -67.0898 L 44.8242 -26.709 L 13.8184 -26.709 Z"/></g><line id="Baseline-S" style="fill:none;stroke:#27AAE1;opacity:1;stroke-width:0.577;" x1="263" x2="3036" y1="696" y2="696"/><line id="Capline-S" style="fill:none;stroke:#27AAE1;opacity:1;stroke-width:0.577;" x1="263" x2="3036" y1="625.541" y2="625.541"/><g id="H-reference" style="fill:#27AAE1;stroke:none;" transform="matrix(1 0 0 1 339 1126)"><path d="M 54.9316 0 L 57.666 0 L 30.5664 -70.459 L 28.0762 -70.459 L 0.976562 0 L 3.66211 0 L 12.9395 -24.4629 L 45.7031 -24.4629 Z M 29.1992 -67.0898 L 29.4434 -67.0898 L 44.8242 -26.709 L 13.8184 -26.709 Z"/></g><line id="Baseline-M" style="fill:none;stroke:#27AAE1;opacity:1;stroke-width:0.577;" x1="263" x2="3036" y1="1126" y2="1126"/><line id="Capline-M" style="fill:none;stroke:#27AAE1;opacity:1;stroke-width:0.577;" x1="263" x2="3036" y1="1055.54" y2="1055.54"/><g id="H-reference" style="fill:#27AAE1;stroke:none;" transform="matrix(1 0 0 1 339 1556)"><path d="M 54.9316 0 L 57.666 0 L 30.5664 -70.459 L 28.0762 -70.459 L 0.976562 0 L 3.66211 0 L 12.9395 -24.4629 L 45.7031 -24.4629 Z M 29.1992 -67.0898 L 29.4434 -67.0898 L 44.8242 -26.709 L 13.8184 -26.709 Z"/></g><line id="Baseline-L" style="fill:none;stroke:#27AAE1;opacity:1;stroke-width:0.577;" x1="263" x2="3036" y1="1556" y2="1556"/><line id="Capline-L" style="fill:none;stroke:#27AAE1;opacity:1;stroke-width:0.577;" x1="263" x2="3036" y1="1485.54" y2="1485.54"/><rect height="119.336" id="left-margin" style="fill:darkred;stroke:none;opacity:0.4;" width="12.4512" x="1394.06" y="1030.79"/><rect height="119.336" id="right-margin" style="fill:darkgreen;stroke:none;opacity:0.4;" width="12.4512" x="1502.5112" y="1030.79"/><rect x="1406.5112" y="1045" width="96" height="96" fill="none" stroke="blue" stroke-dasharray="5"/><rect x="1394.06" y="1030.79" width="120.9024" height="119.336" fill="none" stroke="blue"/></g><g id="Symbols"><g id="Bold-L" transform="matrix(1 0 0 1 2266 1556)"><path d="M32.572 13.306 V18.305 Q32.572 21.937 29.972 24.394 Q27.372 26.851 23.704 26.851 H24.188 Q20.519 26.851 17.919 24.251 Q15.319 21.651 15.319 17.983 V-35.115 L29.186 -76.832 Q30.315 -80.38 33.269 -82.476 Q36.223 -84.572 39.99 -84.572 H114.81 Q118.577 -84.572 121.531 -82.476 Q124.485 -80.38 125.614 -76.832 L139.643 -35.115 V17.983 Q139.643 21.651 136.929 24.251 Q134.216 26.851 130.613 26.851 H130.935 Q127.226 26.851 124.727 24.394 Q122.228 21.937 122.228 18.305 V13.306 H32.572 Z M34.508 -43.937 H120.454 L112.069 -69.254 H42.731 L34.508 -43.937 Z M46.886 -9.269 Q50.471 -9.269 53.051 -11.808 Q55.631 -14.348 55.631 -17.976 Q55.631 -21.739 53.011 -24.373 Q50.391 -27.006 46.924 -27.006 Q43 -27.006 40.447 -24.384 Q37.894 -21.761 37.894 -18.014 Q37.894 -14.267 40.436 -11.768 Q42.978 -9.269 46.886 -9.269 Z M108.199 -9.269 Q111.961 -9.269 114.595 -11.808 Q117.229 -14.348 117.229 -17.976 Q117.229 -21.739 114.606 -24.373 Q111.983 -27.006 108.237 -27.006 Q104.49 -27.006 101.991 -24.384 Q99.491 -21.761 99.491 -18.014 Q99.491 -14.267 102.031 -11.768 Q104.571 -9.269 108.199 -9.269 Z M30.476 -1.851 H124.324 V-34.262 H30.476 V-1.851 Z"/></g><g id="Semibold-L" transform="matrix(1 0 0 1 1970.27 1556)"><path d="M32.432 11.554 V18.165 Q32.432 21.112 30.358 23.105 Q28.284 25.099 25.316 25.099 H24.188 Q21.22 25.099 19.146 23.024 Q17.071 20.95 17.071 17.983 V-34.744 L30.869 -76.272 Q31.857 -79.258 34.333 -81.004 Q36.809 -82.75 39.99 -82.75 H114.81 Q117.991 -82.75 120.467 -81.004 Q122.943 -79.258 123.931 -76.272 L137.82 -34.744 V17.983 Q137.82 20.95 135.682 23.024 Q133.543 25.099 130.613 25.099 H129.323 Q126.315 25.099 124.341 23.105 Q122.368 21.112 122.368 18.165 V11.554 H32.432 Z M33.736 -43.937 H121.155 L112.559 -69.885 H42.241 L33.736 -43.937 Z M46.535 -8.918 Q50.191 -8.918 52.736 -11.458 Q55.281 -13.998 55.281 -17.626 Q55.281 -21.388 52.696 -24.022 Q50.11 -26.656 46.573 -26.656 Q42.72 -26.656 40.131 -24.033 Q37.543 -21.41 37.543 -17.664 Q37.543 -13.917 40.12 -11.418 Q42.697 -8.918 46.535 -8.918 Z M108.479 -8.918 Q112.242 -8.918 114.875 -11.458 Q117.509 -13.998 117.509 -17.626 Q117.509 -21.388 114.886 -24.022 Q112.264 -26.656 108.517 -26.656 Q104.77 -26.656 102.271 -24.033 Q99.772 -21.41 99.772 -17.664 Q99.772 -13.917 102.311 -11.418 Q104.851 -8.918 108.479 -8.918 Z M29.845 -1.22 H124.955 V-34.262 H29.845 V-1.22 Z"/></g><g id="Medium-L" transform="matrix(1 0 0 1 1674.31 1556)"><path d="M32.327 10.239 V18.06 Q32.327 20.493 30.647 22.138 Q28.967 23.784 26.526 23.784 H24.188 Q21.746 23.784 20.066 22.104 Q18.386 20.424 18.386 17.983 V-34.466 L32.131 -75.851 Q33.014 -78.417 35.132 -79.9 Q37.249 -81.383 39.99 -81.383 H114.81 Q117.551 -81.383 119.668 -79.9 Q121.786 -78.417 122.669 -75.851 L136.453 -34.466 V17.983 Q136.453 20.424 134.746 22.104 Q133.039 23.784 130.613 23.784 H128.113 Q125.631 23.784 124.052 22.138 Q122.473 20.493 122.473 18.06 V10.239 H32.327 Z M33.158 -43.937 H121.681 L112.928 -70.358 H41.872 L33.158 -43.937 Z M46.272 -8.655 Q49.981 -8.655 52.499 -11.195 Q55.018 -13.735 55.018 -17.363 Q55.018 -21.125 52.459 -23.759 Q49.9 -26.393 46.31 -26.393 Q42.509 -26.393 39.895 -23.77 Q37.28 -21.147 37.28 -17.401 Q37.28 -13.654 39.884 -11.155 Q42.487 -8.655 46.272 -8.655 Z M108.689 -8.655 Q112.452 -8.655 115.086 -11.195 Q117.719 -13.735 117.719 -17.363 Q117.719 -21.125 115.097 -23.759 Q112.474 -26.393 108.727 -26.393 Q104.981 -26.393 102.481 -23.77 Q99.982 -21.147 99.982 -17.401 Q99.982 -13.654 102.522 -11.155 Q105.061 -8.655 108.689 -8.655 Z M29.372 -0.747 H125.428 V-34.262 H29.372 V-0.747 Z"/></g><g id="Regular-L" transform="matrix(1 0 0 1 1378.56 1556)"><path d="M32.25 9.275 V17.983 Q32.25 20.038 30.859 21.429 Q29.468 22.82 27.413 22.82 H24.188 Q22.132 22.82 20.741 21.429 Q19.35 20.038 19.35 17.983 V-34.262 L33.056 -75.542 Q33.863 -77.8 35.717 -79.09 Q37.571 -80.38 39.99 -80.38 H114.81 Q117.229 -80.38 119.083 -79.09 Q120.938 -77.8 121.744 -75.542 L135.45 -34.262 V17.983 Q135.45 20.038 134.059 21.429 Q132.668 22.82 130.613 22.82 H127.226 Q125.13 22.82 123.84 21.429 Q122.55 20.038 122.55 17.983 V9.275 H32.25 Z M32.734 -43.937 H122.066 L113.198 -70.705 H41.602 L32.734 -43.937 Z M46.08 -8.462 Q49.826 -8.462 52.326 -11.002 Q54.825 -13.542 54.825 -17.17 Q54.825 -20.932 52.285 -23.566 Q49.746 -26.2 46.117 -26.2 Q42.355 -26.2 39.721 -23.577 Q37.087 -20.955 37.087 -17.208 Q37.087 -13.461 39.71 -10.962 Q42.333 -8.462 46.08 -8.462 Z M108.844 -8.462 Q112.606 -8.462 115.24 -11.002 Q117.874 -13.542 117.874 -17.17 Q117.874 -20.932 115.251 -23.566 Q112.628 -26.2 108.882 -26.2 Q105.135 -26.2 102.636 -23.577 Q100.136 -20.955 100.136 -17.208 Q100.136 -13.461 102.676 -10.962 Q105.216 -8.462 108.844 -8.462 Z M29.025 -0.4 H125.775 V-34.262 H29.025 V-0.4 Z"/></g><g id="Light-L" transform="matrix(1 0 0 1 1082.77 1556)"><path d="M31.506 6.236 V15.936 Q31.506 17.491 30.454 18.543 Q29.402 19.595 27.847 19.595 H26.234 Q24.679 19.595 23.627 18.543 Q22.575 17.491 22.575 15.936 V-34.014 L35.847 -73.496 Q36.467 -75.195 37.931 -76.175 Q39.395 -77.155 41.23 -77.155 H113.818 Q115.626 -77.155 116.983 -76.189 Q118.339 -75.223 118.953 -73.496 L132.225 -34.014 V15.936 Q132.225 17.491 131.173 18.543 Q130.121 19.595 128.566 19.595 H126.854 Q125.232 19.595 124.263 18.543 Q123.294 17.491 123.294 15.936 V6.236 H31.506 Z M32.734 -41.333 H122.066 L112.391 -69.837 H42.409 L32.734 -41.333 Z M46.455 -9.703 Q49.764 -9.703 51.984 -11.978 Q54.205 -14.253 54.205 -17.464 Q54.205 -20.808 51.93 -23.101 Q49.654 -25.394 46.464 -25.394 Q43.139 -25.394 40.827 -23.098 Q38.514 -20.801 38.514 -17.473 Q38.514 -14.143 40.83 -11.923 Q43.146 -9.703 46.455 -9.703 Z M108.479 -9.703 Q111.785 -9.703 114.085 -11.978 Q116.385 -14.253 116.385 -17.464 Q116.385 -20.808 114.082 -23.101 Q111.778 -25.394 108.488 -25.394 Q105.197 -25.394 102.946 -23.098 Q100.694 -20.801 100.694 -17.473 Q100.694 -14.143 103.001 -11.923 Q105.307 -9.703 108.479 -9.703 Z M29.893 -1.082 H124.907 V-34.014 H29.893 V-1.082 Z"/></g><g id="Thin-L" transform="matrix(1 0 0 1 787.282 1556)"><path d="M30.762 3.197 V13.889 Q30.762 14.944 30.048 15.657 Q29.335 16.37 28.281 16.37 H28.281 Q27.226 16.37 26.513 15.657 Q25.8 14.944 25.8 13.889 V-33.766 L38.638 -71.449 Q39.072 -72.59 40.145 -73.26 Q41.218 -73.93 42.471 -73.93 H112.825 Q114.024 -73.93 114.882 -73.288 Q115.741 -72.646 116.162 -71.449 L129 -33.766 V13.889 Q129 14.944 128.287 15.657 Q127.574 16.37 126.519 16.37 H126.482 Q125.335 16.37 124.687 15.657 Q124.038 14.944 124.038 13.889 V3.197 H30.762 Z M32.734 -38.728 H122.066 L111.585 -68.968 H43.215 L32.734 -38.728 Z M46.831 -10.943 Q49.702 -10.943 51.643 -12.954 Q53.585 -14.965 53.585 -17.757 Q53.585 -20.684 51.574 -22.636 Q49.563 -24.587 46.811 -24.587 Q43.924 -24.587 41.932 -22.618 Q39.94 -20.648 39.94 -17.737 Q39.94 -14.826 41.95 -12.884 Q43.96 -10.943 46.831 -10.943 Z M108.114 -10.943 Q110.965 -10.943 112.931 -12.954 Q114.897 -14.965 114.897 -17.757 Q114.897 -20.684 112.913 -22.636 Q110.928 -24.587 108.094 -24.587 Q105.259 -24.587 103.256 -22.618 Q101.253 -20.648 101.253 -17.737 Q101.253 -14.826 103.325 -12.884 Q105.398 -10.943 108.114 -10.943 Z M30.762 -1.764 H124.038 V-33.766 H30.762 V-1.764 Z"/></g><g id="Ultralight-L" transform="matrix(1 0 0 1 491.205 1556)"><path d="M30.315 1.374 V12.661 Q30.315 13.415 29.805 13.925 Q29.295 14.435 28.541 14.435 H29.509 Q28.755 14.435 28.245 13.925 Q27.735 13.415 27.735 12.661 V-33.617 L40.312 -70.221 Q40.635 -71.027 41.474 -71.511 Q42.312 -71.995 43.215 -71.995 H112.23 Q113.062 -71.995 113.622 -71.548 Q114.182 -71.1 114.487 -70.221 L127.065 -33.617 V12.661 Q127.065 13.415 126.555 13.925 Q126.045 14.435 125.291 14.435 H126.259 Q125.396 14.435 124.941 13.925 Q124.485 13.415 124.485 12.661 V1.374 H30.315 Z M32.734 -37.165 H122.066 L111.101 -68.447 H43.699 L32.734 -37.165 Z M47.057 -11.687 Q49.665 -11.687 51.439 -13.539 Q53.212 -15.392 53.212 -17.934 Q53.212 -20.61 51.361 -22.357 Q49.508 -24.104 47.019 -24.104 Q44.394 -24.104 42.595 -22.33 Q40.796 -20.556 40.796 -17.896 Q40.796 -15.235 42.622 -13.461 Q44.448 -11.687 47.057 -11.687 Z M107.895 -11.687 Q110.472 -11.687 112.238 -13.539 Q114.004 -15.392 114.004 -17.934 Q114.004 -20.61 112.211 -22.357 Q110.418 -24.104 107.857 -24.104 Q105.296 -24.104 103.442 -22.33 Q101.588 -20.556 101.588 -17.896 Q101.588 -15.235 103.52 -13.461 Q105.453 -11.687 107.895 -11.687 Z M31.283 -2.174 H123.517 V-33.617 H31.283 V-2.174 Z"/></g><g id="Bold-M" transform="matrix(1 0 0 1 2281.8 1126)"><path d="M30.375 4.02 V5.145 Q30.375 8.917 27.625 11.469 Q24.875 14.02 21.125 14.02 H20 Q16.25 14.02 13.5 11.27 Q10.75 8.52 10.75 4.77 V-36.016 L21.5 -66.605 Q22.75 -70.23 25.773 -72.355 Q28.795 -74.48 32.5 -74.48 H87.5 Q91.205 -74.48 94.228 -72.355 Q97.25 -70.23 98.5 -66.605 L109.25 -36.016 V4.77 Q109.25 8.52 106.5 11.27 Q103.75 14.02 100 14.02 H98.875 Q95.125 14.02 92.375 11.469 Q89.625 8.917 89.625 5.145 V4.02 H30.375 Z M30.75 -45.23 H89.25 L84.625 -58.73 H35.375 L30.75 -45.23 Z M38.25 -15.98 Q41.375 -15.98 43.562 -18.167 Q45.75 -20.355 45.75 -23.48 Q45.75 -26.605 43.562 -28.792 Q41.375 -30.98 38.25 -30.98 Q35.125 -30.98 32.938 -28.792 Q30.75 -26.605 30.75 -23.48 Q30.75 -20.355 32.938 -18.167 Q35.125 -15.98 38.25 -15.98 Z M81.75 -15.98 Q84.875 -15.98 87.062 -18.167 Q89.25 -20.355 89.25 -23.48 Q89.25 -26.605 87.062 -28.792 Q84.875 -30.98 81.75 -30.98 Q78.625 -30.98 76.438 -28.792 Q74.25 -26.605 74.25 -23.48 Q74.25 -20.355 76.438 -18.167 Q78.625 -15.98 81.75 -15.98 Z M26.5 -11.73 H93.5 V-35.23 H26.5 V-11.73 Z"/></g><g id="Semibold-M" transform="matrix(1 0 0 1 1985.97 1126)"><path d="M30.212 2.172 V4.982 Q30.212 8.038 28.033 10.105 Q25.853 12.172 22.81 12.172 H20 Q16.956 12.172 14.777 9.993 Q12.598 7.814 12.598 4.77 V-35.674 L23.239 -66.007 Q24.272 -69.034 26.822 -70.833 Q29.373 -72.632 32.5 -72.632 H87.5 Q90.627 -72.632 93.178 -70.833 Q95.728 -69.034 96.761 -66.007 L107.402 -35.674 V4.77 Q107.402 7.814 105.223 9.993 Q103.043 12.172 100 12.172 H97.19 Q94.147 12.172 91.967 10.105 Q89.788 8.038 89.788 4.982 V2.172 H30.212 Z M29.989 -45.23 H90.011 L85.114 -59.382 H34.886 L29.989 -45.23 Z M37.924 -15.654 Q41.049 -15.654 43.236 -17.841 Q45.424 -20.029 45.424 -23.154 Q45.424 -26.279 43.236 -28.466 Q41.049 -30.654 37.924 -30.654 Q34.799 -30.654 32.611 -28.466 Q30.424 -26.279 30.424 -23.154 Q30.424 -20.029 32.611 -17.841 Q34.799 -15.654 37.924 -15.654 Z M82.076 -15.654 Q85.201 -15.654 87.389 -17.841 Q89.576 -20.029 89.576 -23.154 Q89.576 -26.279 87.389 -28.466 Q85.201 -30.654 82.076 -30.654 Q78.951 -30.654 76.764 -28.466 Q74.576 -26.279 74.576 -23.154 Q74.576 -20.029 76.764 -17.841 Q78.951 -15.654 82.076 -15.654 Z M25.848 -11.078 H94.152 V-35.23 H25.848 V-11.078 Z"/></g><g id="Medium-M" transform="matrix(1 0 0 1 1689.91 1126)"><path d="M30.09 0.786 V4.86 Q30.09 7.379 28.338 9.082 Q26.587 10.786 24.073 10.786 H20 Q17.486 10.786 15.735 9.035 Q13.984 7.284 13.984 4.77 V-35.418 L24.544 -65.559 Q25.413 -68.138 27.61 -69.692 Q29.807 -71.246 32.5 -71.246 H87.5 Q90.193 -71.246 92.39 -69.692 Q94.587 -68.138 95.457 -65.559 L106.016 -35.418 V4.77 Q106.016 7.284 104.265 9.035 Q102.514 10.786 100 10.786 H95.927 Q93.413 10.786 91.662 9.082 Q89.91 7.379 89.91 4.86 V0.786 H30.09 Z M29.419 -45.23 H90.582 L85.481 -59.871 H34.519 L29.419 -45.23 Z M37.679 -15.409 Q40.804 -15.409 42.992 -17.597 Q45.179 -19.784 45.179 -22.909 Q45.179 -26.034 42.992 -28.222 Q40.804 -30.409 37.679 -30.409 Q34.554 -30.409 32.367 -28.222 Q30.179 -26.034 30.179 -22.909 Q30.179 -19.784 32.367 -17.597 Q34.554 -15.409 37.679 -15.409 Z M82.321 -15.409 Q85.446 -15.409 87.633 -17.597 Q89.821 -19.784 89.821 -22.909 Q89.821 -26.034 87.633 -28.222 Q85.446 -30.409 82.321 -30.409 Q79.196 -30.409 77.008 -28.222 Q74.821 -26.034 74.821 -22.909 Q74.821 -19.784 77.008 -17.597 Q79.196 -15.409 82.321 -15.409 Z M25.359 -10.589 H94.641 V-35.23 H25.359 V-10.589 Z"/></g><g id="Regular-M" transform="matrix(1 0 0 1 1394.06 1126)"><path d="M30 -0.23 V4.77 Q30 6.895 28.562 8.333 Q27.125 9.77 25 9.77 H20 Q17.875 9.77 16.438 8.333 Q15 6.895 15 4.77 V-35.23 L25.5 -65.23 Q26.25 -67.48 28.188 -68.855 Q30.125 -70.23 32.5 -70.23 H87.5 Q89.875 -70.23 91.812 -68.855 Q93.75 -67.48 94.5 -65.23 L105 -35.23 V4.77 Q105 6.895 103.562 8.333 Q102.125 9.77 100 9.77 H95 Q92.875 9.77 91.438 8.333 Q90 6.895 90 4.77 V-0.23 H30 Z M29 -45.23 H91 L85.75 -60.23 H34.25 L29 -45.23 Z M37.5 -15.23 Q40.625 -15.23 42.812 -17.417 Q45 -19.605 45 -22.73 Q45 -25.855 42.812 -28.042 Q40.625 -30.23 37.5 -30.23 Q34.375 -30.23 32.188 -28.042 Q30 -25.855 30 -22.73 Q30 -19.605 32.188 -17.417 Q34.375 -15.23 37.5 -15.23 Z M82.5 -15.23 Q85.625 -15.23 87.812 -17.417 Q90 -19.605 90 -22.73 Q90 -25.855 87.812 -28.042 Q85.625 -30.23 82.5 -30.23 Q79.375 -30.23 77.188 -28.042 Q75 -25.855 75 -22.73 Q75 -19.605 77.188 -17.417 Q79.375 -15.23 82.5 -15.23 Z M25 -10.23 H95 V-35.23 H25 V-10.23 Z"/></g><g id="Light-M" transform="matrix(1 0 0 1 1098.18 1126)"><path d="M28.077 -2.73 V3.52 Q28.077 5.114 26.999 6.192 Q25.921 7.27 24.327 7.27 H21.25 Q19.656 7.27 18.578 6.192 Q17.5 5.114 17.5 3.52 V-34.845 L27.712 -63.98 Q28.269 -65.701 29.76 -66.715 Q31.25 -67.73 33.077 -67.73 H87.115 Q88.871 -67.73 90.302 -66.699 Q91.734 -65.667 92.288 -63.98 L102.5 -34.845 V3.52 Q102.5 5.114 101.422 6.192 Q100.344 7.27 98.75 7.27 H95.673 Q94.079 7.27 93.001 6.192 Q91.923 5.114 91.923 3.52 V-2.73 H28.077 Z M28.038 -42.345 H91.962 L85.654 -60.23 H34.346 L28.038 -42.345 Z M37.319 -15.999 Q40.048 -15.999 41.947 -17.91 Q43.846 -19.82 43.846 -22.549 Q43.846 -25.278 41.936 -27.177 Q40.025 -29.076 37.296 -29.076 Q34.567 -29.076 32.668 -27.166 Q30.769 -25.255 30.769 -22.526 Q30.769 -19.797 32.68 -17.898 Q34.59 -15.999 37.319 -15.999 Z M82.704 -15.999 Q85.433 -15.999 87.332 -17.91 Q89.231 -19.82 89.231 -22.549 Q89.231 -25.278 87.32 -27.177 Q85.41 -29.076 82.681 -29.076 Q79.952 -29.076 78.053 -27.166 Q76.154 -25.255 76.154 -22.526 Q76.154 -19.797 78.064 -17.898 Q79.975 -15.999 82.704 -15.999 Z M25 -10.23 H95 V-34.845 H25 V-10.23 Z"/></g><g id="Thin-M" transform="matrix(1 0 0 1 802.565 1126)"><path d="M26.154 -5.23 V2.27 Q26.154 3.333 25.435 4.051 Q24.716 4.77 23.654 4.77 H22.5 Q21.438 4.77 20.719 4.051 Q20 3.333 20 2.27 V-34.461 L29.923 -62.73 Q30.288 -63.922 31.332 -64.576 Q32.375 -65.23 33.654 -65.23 H86.731 Q87.866 -65.23 88.792 -64.542 Q89.718 -63.855 90.077 -62.73 L100 -34.461 V2.27 Q100 3.333 99.281 4.051 Q98.562 4.77 97.5 4.77 H96.346 Q95.284 4.77 94.565 4.051 Q93.846 3.333 93.846 2.27 V-5.23 H26.154 Z M27.077 -39.461 H92.923 L85.558 -60.23 H34.442 L27.077 -39.461 Z M37.138 -16.768 Q39.471 -16.768 41.082 -18.402 Q42.692 -20.035 42.692 -22.368 Q42.692 -24.701 41.059 -26.312 Q39.426 -27.922 37.093 -27.922 Q34.76 -27.922 33.149 -26.289 Q31.538 -24.656 31.538 -22.323 Q31.538 -19.99 33.172 -18.379 Q34.805 -16.768 37.138 -16.768 Z M82.907 -16.768 Q85.24 -16.768 86.851 -18.402 Q88.462 -20.035 88.462 -22.368 Q88.462 -24.701 86.828 -26.312 Q85.195 -27.922 82.862 -27.922 Q80.529 -27.922 78.918 -26.289 Q77.308 -24.656 77.308 -22.323 Q77.308 -19.99 78.941 -18.379 Q80.574 -16.768 82.907 -16.768 Z M25 -10.23 H95 V-34.461 H25 V-10.23 Z"/></g><g id="Ultralight-M" transform="matrix(1 0 0 1 506.415 1126)"><path d="M25 -6.73 V1.52 Q25 2.264 24.497 2.767 Q23.994 3.27 23.25 3.27 Q22.506 3.27 22.003 2.767 Q21.5 2.264 21.5 1.52 V-34.23 L31.25 -61.98 Q31.5 -62.855 32.275 -63.292 Q33.05 -63.73 34 -63.73 H86.5 Q87.263 -63.73 87.886 -63.249 Q88.509 -62.767 88.75 -61.98 L98.5 -34.23 V1.52 Q98.5 2.264 97.997 2.767 Q97.494 3.27 96.75 3.27 Q96.006 3.27 95.503 2.767 Q95 2.264 95 1.52 V-6.73 H25 Z M26.5 -37.73 H93.5 L85.5 -60.23 H34.5 L26.5 -37.73 Z M37.029 -17.23 Q39.125 -17.23 40.562 -18.697 Q42 -20.164 42 -22.259 Q42 -24.355 40.533 -25.792 Q39.066 -27.23 36.971 -27.23 Q34.875 -27.23 33.438 -25.763 Q32 -24.296 32 -22.201 Q32 -20.105 33.467 -18.667 Q34.934 -17.23 37.029 -17.23 Z M83.029 -17.23 Q85.125 -17.23 86.562 -18.697 Q88 -20.164 88 -22.259 Q88 -24.355 86.533 -25.792 Q85.066 -27.23 82.971 -27.23 Q80.875 -27.23 79.438 -25.763 Q78 -24.296 78 -22.201 Q78 -20.105 79.467 -18.667 Q80.934 -17.23 83.029 -17.23 Z M25 -10.23 H95 V-34.23 H25 V-10.23 Z"/></g><g id="Bold-S" transform="matrix(1 0 0 1 2294.23 696)"><path d="M23.966 -5.84 V-4.163 Q23.966 -1.858 22.25 -0.298 Q20.534 1.261 18.246 1.261 H16.569 Q14.281 1.261 12.565 -0.455 Q10.849 -2.171 10.849 -4.459 V-35.85 L18.739 -55.547 Q19.824 -58.703 22.514 -60.478 Q25.205 -62.253 28.503 -62.253 H66.177 Q69.475 -62.253 72.166 -60.478 Q74.856 -58.703 75.941 -55.547 L83.831 -35.85 V-4.459 Q83.831 -2.171 82.115 -0.455 Q80.399 1.261 78.111 1.261 H76.434 Q74.146 1.261 72.43 -0.298 Q70.714 -1.858 70.714 -4.163 V-5.84 H23.966 Z M25.149 -39.964 H69.531 L65.29 -50.615 H29.39 L25.149 -39.964 Z M31.363 -20.436 Q33.335 -20.436 34.716 -21.817 Q36.097 -23.198 36.097 -25.17 Q36.097 -27.143 34.716 -28.523 Q33.335 -29.904 31.363 -29.904 Q29.39 -29.904 28.01 -28.523 Q26.629 -27.143 26.629 -25.17 Q26.629 -23.198 28.01 -21.817 Q29.39 -20.436 31.363 -20.436 Z M63.317 -20.436 Q65.29 -20.436 66.671 -21.817 Q68.051 -23.198 68.051 -25.17 Q68.051 -27.143 66.671 -28.523 Q65.29 -29.904 63.317 -29.904 Q61.345 -29.904 59.964 -28.523 Q58.583 -27.143 58.583 -25.17 Q58.583 -23.198 59.964 -21.817 Q61.345 -20.436 63.317 -20.436 Z M22.486 -17.477 H72.194 V-32.863 H22.486 V-17.477 Z"/></g><g id="Semibold-S" transform="matrix(1 0 0 1 1998.1 696)"><path d="M23.837 -7.298 V-4.292 Q23.837 -2.551 22.571 -1.374 Q21.306 -0.197 19.575 -0.197 H16.569 Q14.838 -0.197 13.572 -1.462 Q12.307 -2.728 12.307 -4.459 V-35.58 L20.111 -55.075 Q21.024 -57.759 23.342 -59.277 Q25.661 -60.795 28.503 -60.795 H66.177 Q69.019 -60.795 71.338 -59.277 Q73.656 -57.759 74.569 -55.075 L82.373 -35.58 V-4.459 Q82.373 -2.728 81.108 -1.462 Q79.842 -0.197 78.111 -0.197 H75.105 Q73.374 -0.197 72.109 -1.374 Q70.843 -2.551 70.843 -4.292 V-7.298 H23.837 Z M24.549 -39.964 H70.131 L65.676 -51.13 H29.004 L24.549 -39.964 Z M31.105 -20.179 Q33.078 -20.179 34.459 -21.56 Q35.839 -22.94 35.839 -24.913 Q35.839 -26.885 34.459 -28.266 Q33.078 -29.647 31.105 -29.647 Q29.133 -29.647 27.752 -28.266 Q26.371 -26.885 26.371 -24.913 Q26.371 -22.94 27.752 -21.56 Q29.133 -20.179 31.105 -20.179 Z M63.575 -20.179 Q65.547 -20.179 66.928 -21.56 Q68.309 -22.94 68.309 -24.913 Q68.309 -26.885 66.928 -28.266 Q65.547 -29.647 63.575 -29.647 Q61.602 -29.647 60.221 -28.266 Q58.841 -26.885 58.841 -24.913 Q58.841 -22.94 60.221 -21.56 Q61.602 -20.179 63.575 -20.179 Z M21.972 -16.963 H72.708 V-32.863 H21.972 V-16.963 Z"/></g><g id="Medium-S" transform="matrix(1 0 0 1 1701.85 696)"><path d="M23.741 -8.391 V-4.388 Q23.741 -3.072 22.813 -2.181 Q21.884 -1.29 20.572 -1.29 H16.569 Q15.256 -1.29 14.328 -2.218 Q13.4 -3.146 13.4 -4.459 V-35.378 L21.14 -54.721 Q21.925 -57.052 23.964 -58.377 Q26.003 -59.702 28.503 -59.702 H66.177 Q68.677 -59.702 70.716 -58.377 Q72.755 -57.052 73.54 -54.721 L81.28 -35.378 V-4.459 Q81.28 -3.146 80.352 -2.218 Q79.424 -1.29 78.111 -1.29 H74.108 Q72.796 -1.29 71.867 -2.181 Q70.939 -3.072 70.939 -4.388 V-8.391 H23.741 Z M24.099 -39.964 H70.581 L65.965 -51.516 H28.715 L24.099 -39.964 Z M30.913 -19.986 Q32.885 -19.986 34.266 -21.367 Q35.647 -22.748 35.647 -24.72 Q35.647 -26.693 34.266 -28.073 Q32.885 -29.454 30.913 -29.454 Q28.94 -29.454 27.559 -28.073 Q26.179 -26.693 26.179 -24.72 Q26.179 -22.748 27.559 -21.367 Q28.94 -19.986 30.913 -19.986 Z M63.767 -19.986 Q65.74 -19.986 67.121 -21.367 Q68.501 -22.748 68.501 -24.72 Q68.501 -26.693 67.121 -28.073 Q65.74 -29.454 63.767 -29.454 Q61.795 -29.454 60.414 -28.073 Q59.033 -26.693 59.033 -24.72 Q59.033 -22.748 60.414 -21.367 Q61.795 -19.986 63.767 -19.986 Z M21.586 -16.577 H73.094 V-32.863 H21.586 V-16.577 Z"/></g><g id="Regular-S" transform="matrix(1 0 0 1 1405.73 696)"><path d="M23.67 -9.193 V-4.459 Q23.67 -3.453 22.989 -2.773 Q22.309 -2.092 21.303 -2.092 H16.569 Q15.563 -2.092 14.883 -2.773 Q14.202 -3.453 14.202 -4.459 V-35.23 L21.895 -54.462 Q22.585 -56.533 24.42 -57.716 Q26.254 -58.9 28.503 -58.9 H66.177 Q68.426 -58.9 70.26 -57.716 Q72.095 -56.533 72.785 -54.462 L80.478 -35.23 V-4.459 Q80.478 -3.453 79.797 -2.773 Q79.117 -2.092 78.111 -2.092 H73.377 Q72.371 -2.092 71.691 -2.773 Q71.01 -3.453 71.01 -4.459 V-9.193 H23.67 Z M23.769 -39.964 H70.911 L66.177 -51.799 H28.503 L23.769 -39.964 Z M30.771 -19.844 Q32.744 -19.844 34.124 -21.225 Q35.505 -22.606 35.505 -24.578 Q35.505 -26.551 34.124 -27.932 Q32.744 -29.312 30.771 -29.312 Q28.799 -29.312 27.418 -27.932 Q26.037 -26.551 26.037 -24.578 Q26.037 -22.606 27.418 -21.225 Q28.799 -19.844 30.771 -19.844 Z M63.909 -19.844 Q65.882 -19.844 67.262 -21.225 Q68.643 -22.606 68.643 -24.578 Q68.643 -26.551 67.262 -27.932 Q65.882 -29.312 63.909 -29.312 Q61.937 -29.312 60.556 -27.932 Q59.175 -26.551 59.175 -24.578 Q59.175 -22.606 60.556 -21.225 Q61.937 -19.844 63.909 -19.844 Z M21.303 -16.294 H73.377 V-32.863 H21.303 V-16.294 Z"/></g><g id="Light-S" transform="matrix(1 0 0 1 1109.75 696)"><path d="M22.153 -11.166 V-5.445 Q22.153 -4.859 21.756 -4.462 Q21.359 -4.065 20.772 -4.065 H17.555 Q16.969 -4.065 16.572 -4.462 Q16.175 -4.859 16.175 -5.445 V-34.927 L23.64 -53.476 Q24.178 -55.129 25.66 -56.028 Q27.142 -56.927 28.958 -56.927 H65.874 Q67.633 -56.927 69.069 -56.015 Q70.504 -55.103 71.04 -53.476 L78.505 -34.927 V-5.445 Q78.505 -4.859 78.108 -4.462 Q77.711 -4.065 77.125 -4.065 H73.908 Q73.321 -4.065 72.924 -4.462 Q72.527 -4.859 72.527 -5.445 V-11.166 H22.153 Z M23.01 -37.688 H71.67 L66.102 -51.799 H28.578 L23.01 -37.688 Z M30.628 -20.451 Q32.288 -20.451 33.441 -21.614 Q34.595 -22.776 34.595 -24.436 Q34.595 -26.096 33.432 -27.249 Q32.27 -28.402 30.61 -28.402 Q28.95 -28.402 27.797 -27.24 Q26.644 -26.078 26.644 -24.418 Q26.644 -22.758 27.806 -21.605 Q28.968 -20.451 30.628 -20.451 Z M64.07 -20.451 Q65.73 -20.451 66.883 -21.614 Q68.036 -22.776 68.036 -24.436 Q68.036 -26.096 66.874 -27.249 Q65.712 -28.402 64.052 -28.402 Q62.392 -28.402 61.239 -27.24 Q60.085 -26.078 60.085 -24.418 Q60.085 -22.758 61.248 -21.605 Q62.41 -20.451 64.07 -20.451 Z M21.303 -16.294 H73.377 V-32.56 H21.303 V-16.294 Z"/></g><g id="Thin-S" transform="matrix(1 0 0 1 814.015 696)"><path d="M20.635 -13.138 V-6.431 Q20.635 -6.264 20.522 -6.15 Q20.409 -6.037 20.241 -6.037 H18.541 Q18.374 -6.037 18.26 -6.15 Q18.147 -6.264 18.147 -6.431 V-34.623 L25.384 -52.489 Q25.771 -53.726 26.9 -54.34 Q28.029 -54.955 29.413 -54.955 H65.57 Q66.841 -54.955 67.877 -54.314 Q68.914 -53.673 69.296 -52.489 L76.533 -34.623 V-6.431 Q76.533 -6.264 76.42 -6.15 Q76.306 -6.037 76.139 -6.037 H74.439 Q74.271 -6.037 74.158 -6.15 Q74.045 -6.264 74.045 -6.431 V-13.138 H20.635 Z M22.251 -35.412 H72.429 L66.026 -51.799 H28.654 L22.251 -35.412 Z M30.485 -21.058 Q31.833 -21.058 32.759 -22.002 Q33.684 -22.945 33.684 -24.293 Q33.684 -25.641 32.741 -26.566 Q31.797 -27.492 30.45 -27.492 Q29.102 -27.492 28.176 -26.548 Q27.251 -25.605 27.251 -24.257 Q27.251 -22.909 28.194 -21.984 Q29.138 -21.058 30.485 -21.058 Z M64.23 -21.058 Q65.578 -21.058 66.504 -22.002 Q67.429 -22.945 67.429 -24.293 Q67.429 -25.641 66.486 -26.566 Q65.542 -27.492 64.195 -27.492 Q62.847 -27.492 61.921 -26.548 Q60.996 -25.605 60.996 -24.257 Q60.996 -22.909 61.939 -21.984 Q62.883 -21.058 64.23 -21.058 Z M21.303 -16.294 H73.377 V-32.256 H21.303 V-16.294 Z"/></g><g id="Ultralight-S" transform="matrix(1 0 0 1 517.792 696)"><path d="M19.725 -14.321 V-7.023 Q19.725 -7.107 19.782 -7.164 Q19.838 -7.22 19.922 -7.22 H19.133 Q19.217 -7.22 19.274 -7.164 Q19.331 -7.107 19.331 -7.023 V-34.441 L26.431 -51.898 Q26.727 -52.884 27.645 -53.328 Q28.562 -53.771 29.686 -53.771 H65.388 Q66.365 -53.771 67.163 -53.293 Q67.96 -52.815 68.249 -51.898 L75.35 -34.441 V-7.023 Q75.35 -7.107 75.406 -7.164 Q75.463 -7.22 75.547 -7.22 H74.758 Q74.842 -7.22 74.898 -7.164 Q74.955 -7.107 74.955 -7.023 V-14.321 H19.725 Z M21.796 -34.046 H72.884 L65.98 -51.799 H28.7 L21.796 -34.046 Z M30.4 -21.422 Q31.56 -21.422 32.349 -22.235 Q33.138 -23.047 33.138 -24.207 Q33.138 -25.367 32.326 -26.156 Q31.514 -26.945 30.353 -26.945 Q29.193 -26.945 28.404 -26.133 Q27.615 -25.321 27.615 -24.161 Q27.615 -23 28.427 -22.211 Q29.239 -21.422 30.4 -21.422 Z M64.327 -21.422 Q65.487 -21.422 66.276 -22.235 Q67.065 -23.047 67.065 -24.207 Q67.065 -25.367 66.253 -26.156 Q65.441 -26.945 64.28 -26.945 Q63.12 -26.945 62.331 -26.133 Q61.542 -25.321 61.542 -24.161 Q61.542 -23 62.354 -22.211 Q63.166 -21.422 64.327 -21.422 Z M21.303 -16.294 H73.377 V-32.074 H21.303 V-16.294 Z"/></g></g></svg>