<svg xmlns="http://www.w3.org/2000/svg" version="1.1" width="3300" height="2000"><g id="Notes"><style>
    text {
      font-family: monospace;
      text-anchor: middle;
    }
    text.emphasis {
      font-weight:bold;
    }
    text.lanchor {
      text-anchor: start;
    }
  </style><rect height="2200" id="artboard" fill="white" width="3300" x="0" y="0"/><line id="" style="fill:none;stroke:black;stroke-width:0.5;" x1="263" x2="3036" y1="292" y2="292"/><text class="lanchor emphasis" transform="matrix(1 0 0 1 263 322)">Weight/Scale Variations</text><text transform="matrix(1 0 0 1 559.711 322)">Ultralight</text><text transform="matrix(1 0 0 1 856.422 322)">Thin</text><text transform="matrix(1 0 0 1 1153.13 322)">Light</text><text transform="matrix(1 0 0 1 1449.84 322)">Regular</text><text transform="matrix(1 0 0 1 1746.56 322)">Medium</text><text transform="matrix(1 0 0 1 2043.27 322)">Semibold</text><text transform="matrix(1 0 0 1 2339.98 322)">Bold</text><text transform="matrix(1 0 0 1 2636.69 322)">Heavy</text><text transform="matrix(1 0 0 1 2933.4 322)">Black</text><text id="template-version" style="text-anchor: end;" transform="matrix(1 0 0 1 3036 1933)">Template v.1.0</text><text class="lanchor" transform="matrix(1 0 0 1 263 726)">Small</text><text class="lanchor" transform="matrix(1 0 0 1 263 1156)">Medium</text><text class="lanchor" transform="matrix(1 0 0 1 263 1586)">Large</text></g><g id="Guides"><g id="H-reference" style="fill:#27AAE1;stroke:none;" transform="matrix(1 0 0 1 339 696)"><path d="M 54.9316 0 L 57.666 0 L 30.5664 -70.459 L 28.0762 -70.459 L 0.976562 0 L 3.66211 0 L 12.9395 -24.4629 L 45.7031 -24.4629 Z M 29.1992 -67.0898 L 29.4434 -67.0898 L 44.8242 -26.709 L 13.8184 -26.709 Z"/></g><line id="Baseline-S" style="fill:none;stroke:#27AAE1;opacity:1;stroke-width:0.577;" x1="263" x2="3036" y1="696" y2="696"/><line id="Capline-S" style="fill:none;stroke:#27AAE1;opacity:1;stroke-width:0.577;" x1="263" x2="3036" y1="625.541" y2="625.541"/><g id="H-reference" style="fill:#27AAE1;stroke:none;" transform="matrix(1 0 0 1 339 1126)"><path d="M 54.9316 0 L 57.666 0 L 30.5664 -70.459 L 28.0762 -70.459 L 0.976562 0 L 3.66211 0 L 12.9395 -24.4629 L 45.7031 -24.4629 Z M 29.1992 -67.0898 L 29.4434 -67.0898 L 44.8242 -26.709 L 13.8184 -26.709 Z"/></g><line id="Baseline-M" style="fill:none;stroke:#27AAE1;opacity:1;stroke-width:0.577;" x1="263" x2="3036" y1="1126" y2="1126"/><line id="Capline-M" style="fill:none;stroke:#27AAE1;opacity:1;stroke-width:0.577;" x1="263" x2="3036" y1="1055.54" y2="1055.54"/><g id="H-reference" style="fill:#27AAE1;stroke:none;" transform="matrix(1 0 0 1 339 1556)"><path d="M 54.9316 0 L 57.666 0 L 30.5664 -70.459 L 28.0762 -70.459 L 0.976562 0 L 3.66211 0 L 12.9395 -24.4629 L 45.7031 -24.4629 Z M 29.1992 -67.0898 L 29.4434 -67.0898 L 44.8242 -26.709 L 13.8184 -26.709 Z"/></g><line id="Baseline-L" style="fill:none;stroke:#27AAE1;opacity:1;stroke-width:0.577;" x1="263" x2="3036" y1="1556" y2="1556"/><line id="Capline-L" style="fill:none;stroke:#27AAE1;opacity:1;stroke-width:0.577;" x1="263" x2="3036" y1="1485.54" y2="1485.54"/><rect height="119.336" id="left-margin" style="fill:darkred;stroke:none;opacity:0.4;" width="12.4512" x="1394.06" y="1030.79"/><rect height="119.336" id="right-margin" style="fill:darkgreen;stroke:none;opacity:0.4;" width="12.4512" x="1502.5112" y="1030.79"/><rect x="1406.5112" y="1045" width="96" height="96" fill="none" stroke="blue" stroke-dasharray="5"/><rect x="1394.06" y="1030.79" width="120.9024" height="119.336" fill="none" stroke="blue"/></g><g id="Symbols"><g id="Bold-L" transform="matrix(1 0 0 1 2266 1556)"><path d="M25.155 31.044 V-4.915 H45.473 V31.044 H25.155 Z M59.34 31.044 V-50.71 Q53.212 -46.034 49.343 -39.342 Q45.473 -32.65 45.473 -21.201 H32.25 Q32.25 -45.55 44.496 -56.757 Q56.743 -67.964 77.722 -67.964 Q94.331 -67.964 103.281 -74.575 Q112.23 -81.186 112.23 -97.634 H125.453 Q125.453 -81.4 118.358 -71.134 Q111.263 -60.869 96.911 -56.999 V31.044 H83.689 V-10.075 H72.562 V31.044 H59.34 Z M77.742 -77.961 Q72.079 -77.961 68.128 -82.019 Q64.177 -86.076 64.177 -91.775 Q64.177 -97.472 68.1 -101.423 Q72.023 -105.374 77.635 -105.374 Q83.379 -105.374 87.323 -101.417 Q91.267 -97.46 91.267 -91.726 Q91.267 -86.059 87.336 -82.01 Q83.405 -77.961 77.742 -77.961 Z"/></g><g id="Semibold-L" transform="matrix(1 0 0 1 1970.27 1556)"><path d="M25.926 30.273 V-5.686 H44.701 V30.273 H25.926 Z M60.111 30.273 V-52.042 Q52.862 -47.716 48.782 -40.919 Q44.701 -34.122 44.701 -22.814 H33.021 Q33.021 -45.129 45.061 -56.161 Q57.101 -67.193 77.722 -67.193 Q94.752 -67.193 103.876 -73.769 Q113.001 -80.345 113.001 -96.863 H124.681 Q124.681 -81.027 117.621 -71.123 Q110.561 -61.219 96.14 -57.56 V30.273 H84.46 V-10.846 H71.791 V30.273 H60.111 Z M77.739 -77.19 Q72.429 -77.19 68.689 -80.985 Q64.949 -84.781 64.949 -90.11 Q64.949 -95.439 68.668 -99.18 Q72.386 -102.92 77.668 -102.92 Q83.023 -102.92 86.76 -99.182 Q90.496 -95.443 90.496 -90.094 Q90.496 -84.782 86.772 -80.986 Q83.049 -77.19 77.739 -77.19 Z"/></g><g id="Medium-L" transform="matrix(1 0 0 1 1674.31 1556)"><path d="M26.505 29.694 V-6.265 H44.123 V29.694 H26.505 Z M60.69 29.694 V-53.041 Q52.599 -48.978 48.361 -42.102 Q44.123 -35.226 44.123 -24.023 H33.6 Q33.6 -44.814 45.484 -55.714 Q57.369 -66.614 77.722 -66.614 Q95.067 -66.614 104.323 -73.164 Q113.58 -79.714 113.58 -96.284 H124.103 Q124.103 -80.747 117.069 -71.114 Q110.036 -61.482 95.562 -57.98 V29.694 H85.038 V-11.425 H71.213 V29.694 H60.69 Z M77.737 -76.612 Q72.692 -76.612 69.11 -80.21 Q65.527 -83.808 65.527 -88.861 Q65.527 -93.915 69.093 -97.497 Q72.659 -101.08 77.692 -101.08 Q82.756 -101.08 86.337 -97.505 Q89.918 -93.931 89.918 -88.869 Q89.918 -83.824 86.35 -80.218 Q82.782 -76.612 77.737 -76.612 Z"/></g><g id="Regular-L" transform="matrix(1 0 0 1 1378.56 1556)"><path d="M26.929 29.27 V-6.689 H43.699 V29.27 H26.929 Z M61.114 29.27 V-53.774 Q52.406 -49.904 48.053 -42.97 Q43.699 -36.036 43.699 -24.91 H34.024 Q34.024 -44.582 45.795 -55.386 Q57.566 -66.19 77.722 -66.19 Q95.299 -66.19 104.651 -72.721 Q114.004 -79.251 114.004 -95.86 H123.679 Q123.679 -80.541 116.664 -71.108 Q109.65 -61.675 95.138 -58.289 V29.27 H85.463 V-11.849 H70.789 V29.27 H61.114 Z M77.735 -76.187 Q72.885 -76.187 69.418 -79.641 Q65.951 -83.096 65.951 -87.946 Q65.951 -92.796 69.405 -96.263 Q72.859 -99.73 77.71 -99.73 Q82.56 -99.73 86.027 -96.276 Q89.494 -92.822 89.494 -87.972 Q89.494 -83.121 86.04 -79.654 Q82.586 -76.187 77.735 -76.187 Z"/></g><g id="Light-L" transform="matrix(1 0 0 1 1082.77 1556)"><path d="M29.472 27.657 V-5.82 H43.699 V27.657 H29.472 Z M62.912 27.657 V-56.131 Q53.337 -52.509 48.239 -45.699 Q43.141 -38.889 42.582 -27.081 H35.264 Q35.822 -45.513 47.159 -55.355 Q58.497 -65.198 77.66 -65.198 Q95.175 -65.198 104.62 -70.86 Q114.066 -76.522 114.438 -93.069 H121.756 Q121.57 -78.308 114.432 -69.806 Q107.293 -61.303 92.967 -58.971 V27.657 H85.649 V-12.469 H70.231 V27.657 H62.912 Z M77.673 -76.312 Q73.009 -76.312 69.79 -79.546 Q66.571 -82.78 66.571 -87.385 Q66.571 -91.99 69.777 -95.24 Q72.983 -98.49 77.617 -98.49 Q82.25 -98.49 85.5 -95.255 Q88.749 -92.021 88.749 -87.416 Q88.749 -82.811 85.514 -79.561 Q82.279 -76.312 77.673 -76.312 Z"/></g><g id="Thin-L" transform="matrix(1 0 0 1 787.282 1556)"><path d="M32.014 26.045 V-4.952 H43.699 V26.045 H32.014 Z M64.711 26.045 V-58.487 Q54.267 -55.113 48.425 -48.428 Q42.582 -41.742 41.466 -29.251 H36.505 Q37.621 -46.443 48.524 -55.324 Q59.427 -64.205 77.598 -64.205 Q95.051 -64.205 104.589 -68.999 Q114.128 -73.794 114.872 -90.278 H119.834 Q119.461 -76.076 112.199 -68.503 Q104.937 -60.931 90.796 -59.653 V26.045 H85.835 V-13.089 H69.672 V26.045 H64.711 Z M77.611 -76.436 Q73.133 -76.436 70.162 -79.45 Q67.192 -82.464 67.192 -86.824 Q67.192 -91.184 70.15 -94.217 Q73.107 -97.249 77.524 -97.249 Q81.94 -97.249 84.973 -94.235 Q88.005 -91.22 88.005 -86.861 Q88.005 -82.501 84.989 -79.468 Q81.973 -76.436 77.611 -76.436 Z"/></g><g id="Ultralight-L" transform="matrix(1 0 0 1 491.205 1556)"><path d="M33.54 25.078 V-4.431 H43.699 V25.078 H33.54 Z M65.79 25.078 V-59.901 Q54.825 -56.676 48.536 -50.065 Q42.248 -43.454 40.796 -30.554 H37.249 Q38.7 -47.001 49.343 -55.306 Q59.985 -63.61 77.561 -63.61 Q94.976 -63.61 104.571 -67.883 Q114.165 -72.156 115.133 -88.604 H118.68 Q118.196 -74.736 110.859 -67.722 Q103.523 -60.707 89.494 -60.062 V25.078 H85.946 V-13.461 H69.338 V25.078 H65.79 Z M77.574 -76.51 Q73.207 -76.51 70.386 -79.393 Q67.564 -82.275 67.564 -86.488 Q67.564 -90.7 70.373 -93.602 Q73.182 -96.505 77.468 -96.505 Q81.754 -96.505 84.656 -93.622 Q87.559 -90.74 87.559 -86.527 Q87.559 -82.315 84.674 -79.412 Q81.79 -76.51 77.574 -76.51 Z"/></g><g id="Bold-M" transform="matrix(1 0 0 1 2281.8 1126)"><path d="M18.125 16.645 V-13.355 H36.875 V16.645 H18.125 Z M43.125 16.645 V-41.48 Q39.5 -38.605 38.188 -33.167 Q36.875 -27.73 36.875 -21.355 H23.125 Q23.125 -42.23 33.002 -52.167 Q42.88 -62.105 60 -62.105 Q71.375 -62.105 77.25 -68.292 Q83.125 -74.48 83.125 -87.105 H96.875 Q96.875 -75.105 92.062 -65.542 Q87.25 -55.98 76.875 -51.855 V16.645 H63.125 V-13.355 H56.875 V16.645 H43.125 Z M60.062 -67.105 Q55.125 -67.105 51.625 -70.64 Q48.125 -74.176 48.125 -79.14 Q48.125 -84.105 51.613 -87.542 Q55.102 -90.98 60 -90.98 Q65 -90.98 68.438 -87.542 Q71.875 -84.105 71.875 -79.14 Q71.875 -74.176 68.438 -70.64 Q65 -67.105 60.062 -67.105 Z"/></g><g id="Semibold-M" transform="matrix(1 0 0 1 1985.97 1126)"><path d="M18.94 15.83 V-14.17 H36.06 V15.83 H18.94 Z M43.94 15.83 V-42.893 Q39.174 -40.344 37.617 -34.798 Q36.06 -29.252 36.06 -23.04 H23.94 Q23.94 -41.795 33.599 -51.542 Q43.258 -61.29 60 -61.29 Q71.864 -61.29 77.902 -67.477 Q83.94 -73.665 83.94 -86.29 H96.06 Q96.06 -74.725 91.302 -65.542 Q86.543 -56.36 76.06 -52.453 V15.83 H63.94 V-14.17 H56.06 V15.83 H43.94 Z M60.035 -66.29 Q55.451 -66.29 52.196 -69.565 Q48.94 -72.841 48.94 -77.44 Q48.94 -82.04 52.189 -85.26 Q55.438 -88.48 60 -88.48 Q64.62 -88.48 67.84 -85.26 Q71.06 -82.04 71.06 -77.44 Q71.06 -72.841 67.84 -69.565 Q64.62 -66.29 60.035 -66.29 Z"/></g><g id="Medium-M" transform="matrix(1 0 0 1 1689.91 1126)"><path d="M19.552 15.218 V-14.782 H35.448 V15.218 H19.552 Z M44.552 15.218 V-43.953 Q38.929 -41.648 37.189 -36.021 Q35.448 -30.393 35.448 -24.303 H24.552 Q24.552 -41.469 34.047 -51.074 Q43.542 -60.678 60 -60.678 Q72.231 -60.678 78.391 -66.866 Q84.552 -73.053 84.552 -85.678 H95.448 Q95.448 -74.439 90.731 -65.542 Q86.014 -56.646 75.448 -52.901 V15.218 H64.552 V-14.782 H55.448 V15.218 H44.552 Z M60.015 -65.678 Q55.696 -65.678 52.624 -68.759 Q49.552 -71.839 49.552 -76.165 Q49.552 -80.491 52.621 -83.548 Q55.69 -86.605 60 -86.605 Q64.334 -86.605 67.391 -83.548 Q70.448 -80.491 70.448 -76.165 Q70.448 -71.839 67.391 -68.759 Q64.334 -65.678 60.015 -65.678 Z"/></g><g id="Regular-M" transform="matrix(1 0 0 1 1394.06 1126)"><path d="M20 14.77 V-15.23 H35 V14.77 H20 Z M45 14.77 V-44.73 Q38.75 -42.605 36.875 -36.917 Q35 -31.23 35 -25.23 H25 Q25 -41.23 34.375 -50.73 Q43.75 -60.23 60 -60.23 Q72.5 -60.23 78.75 -66.417 Q85 -72.605 85 -85.23 H95 Q95 -74.23 90.312 -65.542 Q85.625 -56.855 75 -53.23 V14.77 H65 V-15.23 H55 V14.77 H45 Z M60 -65.23 Q55.875 -65.23 52.938 -68.167 Q50 -71.105 50 -75.23 Q50 -79.355 52.938 -82.292 Q55.875 -85.23 60 -85.23 Q64.125 -85.23 67.062 -82.292 Q70 -79.355 70 -75.23 Q70 -71.105 67.062 -68.167 Q64.125 -65.23 60 -65.23 Z"/></g><g id="Light-M" transform="matrix(1 0 0 1 1098.18 1126)"><path d="M22.212 13.52 V-13.98 H34.712 V13.52 H22.212 Z M47.019 13.52 V-47.855 Q40 -45.73 37.139 -40.211 Q34.279 -34.692 33.846 -27.442 H26.346 Q26.779 -42.288 35.745 -50.73 Q44.712 -59.172 60 -59.172 Q72.788 -59.172 79.375 -64.398 Q85.962 -69.624 86.25 -82.249 H93.75 Q93.606 -71.441 88.606 -63.86 Q83.606 -56.278 72.981 -53.711 V13.52 H65.481 V-16.192 H54.519 V13.52 H47.019 Z M60 -65.807 Q56.163 -65.807 53.466 -68.504 Q50.769 -71.201 50.769 -75.038 Q50.769 -78.874 53.466 -81.571 Q56.163 -84.268 60 -84.268 Q63.837 -84.268 66.534 -81.571 Q69.231 -78.874 69.231 -75.038 Q69.231 -71.201 66.534 -68.504 Q63.837 -65.807 60 -65.807 Z"/></g><g id="Thin-M" transform="matrix(1 0 0 1 802.565 1126)"><path d="M24.423 12.27 V-12.73 H34.423 V12.27 H24.423 Z M49.038 12.27 V-50.98 Q41.25 -48.855 37.404 -43.504 Q33.558 -38.153 32.692 -29.653 H27.692 Q28.558 -43.345 37.115 -50.73 Q45.673 -58.115 60 -58.115 Q73.077 -58.115 80 -62.379 Q86.923 -66.643 87.5 -79.268 H92.5 Q92.212 -68.653 86.899 -62.177 Q81.587 -55.701 70.962 -54.191 V12.27 H65.962 V-17.153 H54.038 V12.27 H49.038 Z M60 -66.384 Q56.452 -66.384 53.995 -68.841 Q51.538 -71.297 51.538 -74.845 Q51.538 -78.393 53.995 -80.85 Q56.452 -83.307 60 -83.307 Q63.548 -83.307 66.005 -80.85 Q68.462 -78.393 68.462 -74.845 Q68.462 -71.297 66.005 -68.841 Q63.548 -66.384 60 -66.384 Z"/></g><g id="Ultralight-M" transform="matrix(1 0 0 1 506.415 1126)"><path d="M25.75 11.52 V-11.98 H34.25 V11.52 H25.75 Z M50.25 11.52 V-52.855 Q42 -50.73 37.562 -45.48 Q33.125 -40.23 32 -30.98 H28.5 Q29.625 -43.98 37.938 -50.73 Q46.25 -57.48 60 -57.48 Q73.25 -57.48 80.375 -61.167 Q87.5 -64.855 88.25 -77.48 H91.75 Q91.375 -66.98 85.875 -61.167 Q80.375 -55.355 69.75 -54.48 V11.52 H66.25 V-17.73 H53.75 V11.52 H50.25 Z M60 -66.73 Q56.625 -66.73 54.312 -69.042 Q52 -71.355 52 -74.73 Q52 -78.105 54.312 -80.417 Q56.625 -82.73 60 -82.73 Q63.375 -82.73 65.688 -80.417 Q68 -78.105 68 -74.73 Q68 -71.355 65.688 -69.042 Q63.375 -66.73 60 -66.73 Z"/></g><g id="Bold-S" transform="matrix(1 0 0 1 2294.23 696)"><path d="M17.457 2.938 V-15.998 H29.883 V2.938 H17.457 Z M34.026 2.938 V-38.287 Q31.856 -35.23 29.686 -31.186 Q27.516 -27.143 27.516 -21.521 H17.457 Q17.457 -35.526 24.609 -43.81 Q31.761 -52.095 42.409 -52.095 H49.707 Q56.709 -52.095 61.937 -57.618 Q67.164 -63.141 67.164 -71.031 H77.223 Q77.223 -61.859 72.489 -54.659 Q67.755 -47.459 60.654 -44.205 V2.938 H50.595 V-20.732 H44.085 V2.938 H34.026 Z M47.365 -58.012 Q43.296 -58.012 40.436 -60.925 Q37.576 -63.837 37.576 -67.927 Q37.576 -72.017 40.451 -74.828 Q43.327 -77.639 47.364 -77.639 Q51.482 -77.639 54.293 -74.803 Q57.104 -71.968 57.104 -67.878 Q57.104 -63.788 54.269 -60.9 Q51.433 -58.012 47.365 -58.012 Z"/></g><g id="Semibold-S" transform="matrix(1 0 0 1 1998.1 696)"><path d="M18.1 2.295 V-16.641 H29.24 V2.295 H18.1 Z M34.669 2.295 V-39.402 Q31.599 -36.602 29.236 -32.473 Q26.873 -28.343 26.873 -22.85 H18.1 Q18.1 -35.183 25.08 -43.317 Q32.059 -51.452 42.409 -51.452 H49.707 Q57.095 -51.452 62.451 -56.975 Q67.807 -62.498 67.807 -70.388 H76.58 Q76.58 -61.559 71.889 -54.659 Q67.198 -47.76 60.011 -44.676 V2.295 H51.238 V-21.375 H43.442 V2.295 H34.669 Z M47.343 -57.369 Q43.554 -57.369 40.886 -60.077 Q38.219 -62.784 38.219 -66.586 Q38.219 -70.388 40.906 -73.027 Q43.592 -75.666 47.364 -75.666 Q51.182 -75.666 53.821 -73.003 Q56.461 -70.339 56.461 -66.537 Q56.461 -62.735 53.797 -60.052 Q51.133 -57.369 47.343 -57.369 Z"/></g><g id="Medium-S" transform="matrix(1 0 0 1 1701.85 696)"><path d="M18.582 1.812 V-17.124 H28.758 V1.812 H18.582 Z M35.151 1.812 V-40.238 Q31.406 -37.631 28.898 -33.438 Q26.391 -29.244 26.391 -23.847 H18.582 Q18.582 -34.926 25.433 -42.947 Q32.283 -50.969 42.409 -50.969 H49.707 Q57.385 -50.969 62.837 -56.492 Q68.289 -62.015 68.289 -69.905 H76.098 Q76.098 -61.333 71.439 -54.659 Q66.78 -47.985 59.529 -45.03 V1.812 H51.72 V-21.858 H42.96 V1.812 H35.151 Z M47.327 -56.887 Q43.747 -56.887 41.224 -59.44 Q38.702 -61.994 38.702 -65.58 Q38.702 -69.166 41.246 -71.676 Q43.791 -74.187 47.364 -74.187 Q50.957 -74.187 53.468 -71.652 Q55.978 -69.117 55.978 -65.531 Q55.978 -61.945 53.443 -59.416 Q50.908 -56.887 47.327 -56.887 Z"/></g><g id="Regular-S" transform="matrix(1 0 0 1 1405.73 696)"><path d="M18.936 1.459 V-17.477 H28.404 V1.459 H18.936 Z M35.505 1.459 V-40.852 Q31.264 -38.386 28.651 -34.145 Q26.037 -29.904 26.037 -24.578 H18.936 Q18.936 -34.737 25.692 -42.676 Q32.448 -50.615 42.409 -50.615 H49.707 Q57.597 -50.615 63.12 -56.138 Q68.643 -61.661 68.643 -69.551 H75.744 Q75.744 -61.168 71.109 -54.659 Q66.473 -48.15 59.175 -45.29 V1.459 H52.074 V-22.211 H42.606 V1.459 H35.505 Z M47.316 -56.533 Q43.888 -56.533 41.472 -58.974 Q39.056 -61.415 39.056 -64.842 Q39.056 -68.269 41.496 -70.686 Q43.937 -73.102 47.364 -73.102 Q50.792 -73.102 53.208 -70.661 Q55.625 -68.22 55.625 -64.793 Q55.625 -61.366 53.184 -58.949 Q50.743 -56.533 47.316 -56.533 Z"/></g><g id="Light-S" transform="matrix(1 0 0 1 1109.75 696)"><path d="M20.681 0.472 V-16.491 H28.176 V0.472 H20.681 Z M37.098 0.472 V-43.317 Q32.25 -40.852 28.859 -36.744 Q25.468 -32.636 25.127 -26.324 H19.998 Q20.34 -35.571 26.773 -42.676 Q33.206 -49.781 42.409 -49.781 H49.707 Q57.825 -49.781 63.613 -54.545 Q69.402 -59.309 69.629 -67.199 H74.758 Q74.644 -58.968 69.762 -53.331 Q64.88 -47.695 57.582 -45.669 V0.472 H52.453 V-22.97 H42.227 V0.472 H37.098 Z M47.316 -56.988 Q44.116 -56.988 41.889 -59.239 Q39.662 -61.49 39.662 -64.69 Q39.662 -67.89 41.914 -70.117 Q44.165 -72.343 47.364 -72.343 Q50.564 -72.343 52.791 -70.092 Q55.018 -67.841 55.018 -64.641 Q55.018 -61.441 52.766 -59.215 Q50.515 -56.988 47.316 -56.988 Z"/></g><g id="Thin-S" transform="matrix(1 0 0 1 814.015 696)"><path d="M22.426 -0.514 V-15.505 H27.949 V-0.514 H22.426 Z M38.691 -0.514 V-45.783 Q33.237 -43.317 29.068 -39.342 Q24.899 -35.366 24.216 -28.068 H21.06 Q21.743 -36.406 27.854 -42.676 Q33.965 -48.946 42.409 -48.946 H49.707 Q58.052 -48.946 64.106 -52.952 Q70.16 -56.958 70.615 -64.848 H73.772 Q73.544 -56.768 68.415 -52.004 Q63.287 -47.239 55.989 -46.048 V-0.514 H52.833 V-23.729 H41.847 V-0.514 H38.691 Z M47.316 -57.443 Q44.343 -57.443 42.306 -59.505 Q40.269 -61.566 40.269 -64.538 Q40.269 -67.511 42.331 -69.548 Q44.392 -71.585 47.364 -71.585 Q50.337 -71.585 52.374 -69.523 Q54.411 -67.462 54.411 -64.49 Q54.411 -61.517 52.349 -59.48 Q50.288 -57.443 47.316 -57.443 Z"/></g><g id="Ultralight-S" transform="matrix(1 0 0 1 517.792 696)"><path d="M23.473 -1.106 V-14.913 H27.812 V-1.106 H23.473 Z M39.647 -1.106 V-47.262 Q33.828 -44.797 29.193 -40.901 Q24.558 -37.005 23.67 -29.115 H21.698 Q22.585 -36.907 28.503 -42.676 Q34.42 -48.446 42.409 -48.446 H49.707 Q58.189 -48.446 64.402 -51.996 Q70.615 -55.547 71.207 -63.437 H73.18 Q72.884 -55.448 67.607 -51.207 Q62.331 -46.966 55.033 -46.276 V-1.106 H53.06 V-24.184 H41.62 V-1.106 H39.647 Z M47.316 -57.716 Q44.48 -57.716 42.557 -59.664 Q40.634 -61.612 40.634 -64.447 Q40.634 -67.283 42.581 -69.206 Q44.529 -71.129 47.364 -71.129 Q50.2 -71.129 52.123 -69.182 Q54.047 -67.234 54.047 -64.399 Q54.047 -61.563 52.099 -59.64 Q50.151 -57.716 47.316 -57.716 Z"/></g></g></svg>